# xmcd
#
# Track frame offsets:
#	210
#	21697
#	36290
#	54625
#	75070
#	91557
#	113105
#	126190
#	142542
#	153787
#	172380
#	190147
#	215350
#	239157
#	259920
#	274450
#
# Disc length: 3928
#
# Revision: 1
# Processed by: cddbd v1.5.1PL0 Copyright (c) Steve Scherf et al.
# Submitted via: inCDius 1.1b8
# Normalized: r0:DSETVAR1
#
DISCID=de0f5610
DTITLE=Various Artist - Super Soul Blues - Volume 3
DYEAR=1900
DGENRE=
TTITLE0=Baby, Baby - John Lee Hookeer
TTITLE1=Never Been To Spain - Tina Turner
TTITLE2=Messin' With My Mind - Barbara Carr
TTITLE3=Cummins Prison Farm - Ted Taylor
TTITLE4=Born With The Blues - Memphis Slim
TTITLE5=She Cheatin' On You - Cicero Blake
TTITLE6=When The Deal Goes Down - Little Johnny Taylor
TTITLE7=Booze In The Bottle - Carter Brothers
TTITLE8=I'm Gonna Leave You - Bobby Powell
TTITLE9=Harp And Soul - Frank Frost
TTITLE10=Do No Right - T. Bone Walker
TTITLE11=Kiss And Say Goodbye - Jerry Green
TTITLE12=I Can See Clearly Now - Ric Harris
TTITLE13=Cold Woman - Ernie Johnson
TTITLE14=Right On Jody - Bobby Patterson
TTITLE15=Make Up For Lost Time - The Montclairs
EXTD=
EXTT0=
EXTT1=
EXTT2=
EXTT3=
EXTT4=
EXTT5=
EXTT6=
EXTT7=
EXTT8=
EXTT9=
EXTT10=
EXTT11=
EXTT12=
EXTT13=
EXTT14=
EXTT15=
PLAYORDER=
